<mxfile host="app.diagrams.net" agent="Mozilla/5.0 (Windows NT 10.0; Win64; x64) AppleWebKit/537.36 (KHTML, like Gecko) Chrome/126.0.0.0 Safari/537.36 OPR/112.0.0.0" version="24.7.12">
  <diagram name="PÃ¡gina-1" id="NnyzigufDC-cjgFjmyWJ">
    <mxGraphModel dx="1526" dy="403" grid="1" gridSize="10" guides="1" tooltips="1" connect="1" arrows="1" fold="1" page="1" pageScale="1" pageWidth="827" pageHeight="1169" math="1" shadow="0">
      <root>
        <mxCell id="0" />
        <mxCell id="1" parent="0" />
        <mxCell id="rlFe-Ou5FWea8fvfqkU1-92" value="" style="endArrow=none;html=1;rounded=0;strokeWidth=1.5;exitX=0.002;exitY=0.575;exitDx=0;exitDy=0;exitPerimeter=0;strokeColor=#FF0000;" parent="1" edge="1">
          <mxGeometry width="50" height="50" relative="1" as="geometry">
            <mxPoint x="298.26179812949647" y="330.1796875" as="sourcePoint" />
            <mxPoint x="224.47" y="223" as="targetPoint" />
            <Array as="points">
              <mxPoint x="224" y="330" />
            </Array>
          </mxGeometry>
        </mxCell>
        <mxCell id="rlFe-Ou5FWea8fvfqkU1-93" value="" style="endArrow=none;html=1;rounded=0;strokeWidth=1.5;strokeColor=#FF0000;" parent="1" edge="1">
          <mxGeometry width="50" height="50" relative="1" as="geometry">
            <mxPoint x="298" y="310" as="sourcePoint" />
            <mxPoint x="244.47" y="223" as="targetPoint" />
            <Array as="points">
              <mxPoint x="244" y="310" />
            </Array>
          </mxGeometry>
        </mxCell>
        <mxCell id="rlFe-Ou5FWea8fvfqkU1-94" value="" style="endArrow=none;html=1;rounded=0;strokeWidth=1.5;exitX=0.002;exitY=0.324;exitDx=0;exitDy=0;exitPerimeter=0;strokeColor=#FF0000;" parent="1" edge="1">
          <mxGeometry width="50" height="50" relative="1" as="geometry">
            <mxPoint x="298.26179812949647" y="289.94124999999997" as="sourcePoint" />
            <mxPoint x="264.47" y="223" as="targetPoint" />
            <Array as="points">
              <mxPoint x="264" y="290" />
            </Array>
          </mxGeometry>
        </mxCell>
        <mxCell id="rlFe-Ou5FWea8fvfqkU1-88" value="" style="endArrow=none;html=1;rounded=0;strokeColor=#FF0000;strokeWidth=1.5;" parent="1" edge="1">
          <mxGeometry width="50" height="50" relative="1" as="geometry">
            <mxPoint x="466" y="158.27" as="sourcePoint" />
            <mxPoint x="536" y="158.27" as="targetPoint" />
          </mxGeometry>
        </mxCell>
        <mxCell id="rlFe-Ou5FWea8fvfqkU1-89" value="" style="endArrow=none;html=1;rounded=0;strokeColor=#FF0000;strokeWidth=1.5;" parent="1" edge="1">
          <mxGeometry width="50" height="50" relative="1" as="geometry">
            <mxPoint x="546" y="179.4" as="sourcePoint" />
            <mxPoint x="463.47500000000014" y="179.09990909090914" as="targetPoint" />
          </mxGeometry>
        </mxCell>
        <mxCell id="rlFe-Ou5FWea8fvfqkU1-90" value="" style="endArrow=none;html=1;rounded=0;strokeColor=#FF0000;strokeWidth=1.5;" parent="1" edge="1">
          <mxGeometry width="50" height="50" relative="1" as="geometry">
            <mxPoint x="466" y="201.27" as="sourcePoint" />
            <mxPoint x="536" y="201.27" as="targetPoint" />
          </mxGeometry>
        </mxCell>
        <mxCell id="rlFe-Ou5FWea8fvfqkU1-50" style="edgeStyle=orthogonalEdgeStyle;rounded=0;orthogonalLoop=1;jettySize=auto;html=1;exitX=0.5;exitY=1;exitDx=0;exitDy=0;exitPerimeter=0;entryX=1;entryY=0.5;entryDx=0;entryDy=0;endArrow=none;endFill=0;strokeColor=#FF0000;strokeWidth=1.5;" parent="1" source="rlFe-Ou5FWea8fvfqkU1-45" target="rlFe-Ou5FWea8fvfqkU1-34" edge="1">
          <mxGeometry relative="1" as="geometry" />
        </mxCell>
        <mxCell id="rlFe-Ou5FWea8fvfqkU1-45" value="" style="verticalLabelPosition=bottom;shadow=0;dashed=0;align=center;html=1;verticalAlign=top;strokeWidth=1;shape=mxgraph.electrical.signal_sources.current_source;rotation=90;" parent="1" vertex="1">
          <mxGeometry x="415" y="134" width="60" height="90" as="geometry" />
        </mxCell>
        <mxCell id="rlFe-Ou5FWea8fvfqkU1-48" value="" style="group" parent="1" vertex="1" connectable="0">
          <mxGeometry x="515" y="144" width="70" height="70" as="geometry" />
        </mxCell>
        <mxCell id="rlFe-Ou5FWea8fvfqkU1-46" value="" style="ellipse;whiteSpace=wrap;html=1;aspect=fixed;" parent="rlFe-Ou5FWea8fvfqkU1-48" vertex="1">
          <mxGeometry width="70" height="70" as="geometry" />
        </mxCell>
        <mxCell id="rlFe-Ou5FWea8fvfqkU1-47" value="" style="pointerEvents=1;verticalLabelPosition=bottom;shadow=0;dashed=0;align=center;html=1;verticalAlign=top;shape=mxgraph.electrical.waveforms.sine_wave;" parent="rlFe-Ou5FWea8fvfqkU1-48" vertex="1">
          <mxGeometry x="7.52500000000002" y="14.796249999999997" width="54.949999999999996" height="40.4075" as="geometry" />
        </mxCell>
        <mxCell id="rlFe-Ou5FWea8fvfqkU1-54" value="" style="rounded=0;whiteSpace=wrap;html=1;" parent="1" vertex="1">
          <mxGeometry x="100" y="174.54" width="50" height="10" as="geometry" />
        </mxCell>
        <mxCell id="rlFe-Ou5FWea8fvfqkU1-77" style="edgeStyle=orthogonalEdgeStyle;rounded=0;orthogonalLoop=1;jettySize=auto;html=1;exitX=1;exitY=0.25;exitDx=0;exitDy=0;endArrow=none;endFill=0;entryX=0.15;entryY=0.9;entryDx=0;entryDy=0;entryPerimeter=0;strokeColor=#FF0000;strokeWidth=1.5;" parent="1" source="rlFe-Ou5FWea8fvfqkU1-34" target="rlFe-Ou5FWea8fvfqkU1-45" edge="1">
          <mxGeometry relative="1" as="geometry">
            <mxPoint x="480" y="157.66666666666669" as="targetPoint" />
          </mxGeometry>
        </mxCell>
        <mxCell id="rlFe-Ou5FWea8fvfqkU1-78" style="edgeStyle=orthogonalEdgeStyle;rounded=0;orthogonalLoop=1;jettySize=auto;html=1;exitX=1;exitY=0.75;exitDx=0;exitDy=0;endArrow=none;endFill=0;entryX=0.872;entryY=0.893;entryDx=0;entryDy=0;entryPerimeter=0;strokeColor=#FF0000;strokeWidth=1.5;" parent="1" source="rlFe-Ou5FWea8fvfqkU1-34" target="rlFe-Ou5FWea8fvfqkU1-45" edge="1">
          <mxGeometry relative="1" as="geometry">
            <mxPoint x="480" y="201.33333333333331" as="targetPoint" />
          </mxGeometry>
        </mxCell>
        <mxCell id="rlFe-Ou5FWea8fvfqkU1-34" value="" style="rounded=1;whiteSpace=wrap;html=1;" parent="1" vertex="1">
          <mxGeometry x="134.4869230769231" y="136.08" width="173.84307692307695" height="86.92" as="geometry" />
        </mxCell>
        <mxCell id="rlFe-Ou5FWea8fvfqkU1-35" value="" style="rounded=0;whiteSpace=wrap;html=1;fillColor=#B3B3B3;" parent="1" vertex="1">
          <mxGeometry x="192.43461538461537" y="157.81" width="101.40846153846154" height="43.46" as="geometry" />
        </mxCell>
        <mxCell id="rlFe-Ou5FWea8fvfqkU1-38" value="" style="rounded=0;whiteSpace=wrap;html=1;fillColor=#FFFFFF;" parent="1" vertex="1">
          <mxGeometry x="192.43461538461537" y="172.29666666666668" width="101.40846153846154" height="14.486666666666666" as="geometry" />
        </mxCell>
        <mxCell id="rlFe-Ou5FWea8fvfqkU1-39" value="" style="rounded=0;whiteSpace=wrap;html=1;fillColor=#999999;" parent="1" vertex="1">
          <mxGeometry x="206.9215384615385" y="165.05333333333334" width="14.486923076923079" height="28.973333333333333" as="geometry" />
        </mxCell>
        <mxCell id="rlFe-Ou5FWea8fvfqkU1-40" value="" style="rounded=0;whiteSpace=wrap;html=1;fillColor=#999999;" parent="1" vertex="1">
          <mxGeometry x="235.89538461538461" y="165.05333333333334" width="14.486923076923079" height="28.973333333333333" as="geometry" />
        </mxCell>
        <mxCell id="rlFe-Ou5FWea8fvfqkU1-41" value="" style="rounded=0;whiteSpace=wrap;html=1;fillColor=#999999;" parent="1" vertex="1">
          <mxGeometry x="264.86923076923074" y="165.05333333333334" width="14.486923076923079" height="28.973333333333333" as="geometry" />
        </mxCell>
        <mxCell id="rlFe-Ou5FWea8fvfqkU1-42" value="&lt;font style=&quot;font-size: 21px;&quot;&gt;GIDA&lt;/font&gt;" style="text;html=1;align=center;verticalAlign=middle;whiteSpace=wrap;rounded=0;fontStyle=1" parent="1" vertex="1">
          <mxGeometry x="135.49" y="158.27" width="55.51" height="43.46" as="geometry" />
        </mxCell>
        <mxCell id="rlFe-Ou5FWea8fvfqkU1-71" value="Transformador" style="text;html=1;align=center;verticalAlign=middle;resizable=0;points=[];autosize=1;strokeColor=none;fillColor=none;fontSize=15;fontStyle=1" parent="1" vertex="1">
          <mxGeometry x="385" y="106.08" width="120" height="30" as="geometry" />
        </mxCell>
        <mxCell id="rlFe-Ou5FWea8fvfqkU1-72" value="Rede" style="text;html=1;align=center;verticalAlign=middle;resizable=0;points=[];autosize=1;strokeColor=none;fillColor=none;fontSize=15;fontStyle=1" parent="1" vertex="1">
          <mxGeometry x="520" y="224" width="60" height="30" as="geometry" />
        </mxCell>
        <mxCell id="0ev0CNcDxgLPUTiBVm03-36" style="edgeStyle=orthogonalEdgeStyle;rounded=0;orthogonalLoop=1;jettySize=auto;html=1;entryX=0.5;entryY=0;entryDx=0;entryDy=0;" edge="1" parent="1" source="0ev0CNcDxgLPUTiBVm03-3" target="0ev0CNcDxgLPUTiBVm03-14">
          <mxGeometry relative="1" as="geometry" />
        </mxCell>
        <mxCell id="0ev0CNcDxgLPUTiBVm03-3" value="" style="rounded=1;whiteSpace=wrap;html=1;fillColor=#000000;" vertex="1" parent="1">
          <mxGeometry x="90" y="170" width="20" height="20" as="geometry" />
        </mxCell>
        <mxCell id="0ev0CNcDxgLPUTiBVm03-4" value="" style="group" vertex="1" connectable="0" parent="1">
          <mxGeometry x="297.33000000000004" y="265" width="158.42433280285695" height="110.31187499999999" as="geometry" />
        </mxCell>
        <mxCell id="rlFe-Ou5FWea8fvfqkU1-31" style="edgeStyle=orthogonalEdgeStyle;rounded=0;orthogonalLoop=1;jettySize=auto;html=1;exitX=0;exitY=0.5;exitDx=0;exitDy=0;exitPerimeter=0;endArrow=none;endFill=0;" parent="0ev0CNcDxgLPUTiBVm03-4" source="rlFe-Ou5FWea8fvfqkU1-23" edge="1">
          <mxGeometry relative="1" as="geometry">
            <mxPoint x="134.52278936258062" y="24.513750000000016" as="targetPoint" />
          </mxGeometry>
        </mxCell>
        <mxCell id="rlFe-Ou5FWea8fvfqkU1-32" style="edgeStyle=orthogonalEdgeStyle;rounded=0;orthogonalLoop=1;jettySize=auto;html=1;exitX=1;exitY=0.5;exitDx=0;exitDy=0;exitPerimeter=0;endArrow=none;endFill=0;" parent="0ev0CNcDxgLPUTiBVm03-4" source="rlFe-Ou5FWea8fvfqkU1-23" edge="1">
          <mxGeometry relative="1" as="geometry">
            <mxPoint x="134.52278936258062" y="85.79812500000003" as="targetPoint" />
          </mxGeometry>
        </mxCell>
        <mxCell id="rlFe-Ou5FWea8fvfqkU1-23" value="" style="pointerEvents=1;verticalLabelPosition=bottom;shadow=0;dashed=0;align=center;html=1;verticalAlign=top;shape=mxgraph.electrical.capacitors.capacitor_2;rotation=90;" parent="0ev0CNcDxgLPUTiBVm03-4" vertex="1">
          <mxGeometry x="111.84696609872879" y="41.550806249999994" width="45.35164652770372" height="27.210262500000002" as="geometry" />
        </mxCell>
        <mxCell id="rlFe-Ou5FWea8fvfqkU1-24" value="" style="endArrow=none;html=1;rounded=0;" parent="0ev0CNcDxgLPUTiBVm03-4" edge="1">
          <mxGeometry width="50" height="50" relative="1" as="geometry">
            <mxPoint x="110.00838583409217" y="24.513750000000016" as="sourcePoint" />
            <mxPoint x="158.42433280285695" y="24.513750000000016" as="targetPoint" />
          </mxGeometry>
        </mxCell>
        <mxCell id="rlFe-Ou5FWea8fvfqkU1-25" value="" style="endArrow=none;html=1;rounded=0;" parent="0ev0CNcDxgLPUTiBVm03-4" edge="1">
          <mxGeometry width="50" height="50" relative="1" as="geometry">
            <mxPoint x="110.00838583409217" y="85.79812500000003" as="sourcePoint" />
            <mxPoint x="158.42433280285695" y="85.79812500000003" as="targetPoint" />
          </mxGeometry>
        </mxCell>
        <mxCell id="rlFe-Ou5FWea8fvfqkU1-1" value="" style="rounded=0;whiteSpace=wrap;html=1;" parent="0ev0CNcDxgLPUTiBVm03-4" vertex="1">
          <mxGeometry width="110.31481587819825" height="110.31187500000001" as="geometry" />
        </mxCell>
        <mxCell id="rlFe-Ou5FWea8fvfqkU1-2" value="" style="verticalLabelPosition=bottom;shadow=0;dashed=0;align=center;html=1;verticalAlign=top;shape=mxgraph.electrical.transistors.nigbt;fillColor=#000000;" parent="0ev0CNcDxgLPUTiBVm03-4" vertex="1">
          <mxGeometry x="5.515740793909913" y="9.192656250000027" width="58.834568468372396" height="91.9265625" as="geometry" />
        </mxCell>
        <mxCell id="rlFe-Ou5FWea8fvfqkU1-3" value="" style="pointerEvents=1;fillColor=strokeColor;verticalLabelPosition=bottom;shadow=0;dashed=0;align=center;html=1;verticalAlign=top;shape=mxgraph.electrical.diodes.diode;rotation=-90;" parent="0ev0CNcDxgLPUTiBVm03-4" vertex="1">
          <mxGeometry x="64.35030926228228" y="41.36695312500001" width="45.96450661591594" height="27.577968750000004" as="geometry" />
        </mxCell>
        <mxCell id="rlFe-Ou5FWea8fvfqkU1-6" value="" style="endArrow=none;html=1;rounded=0;exitX=1.007;exitY=0.951;exitDx=0;exitDy=0;exitPerimeter=0;entryX=0;entryY=0.5;entryDx=0;entryDy=0;entryPerimeter=0;jumpSize=6;startSize=7;" parent="0ev0CNcDxgLPUTiBVm03-4" source="rlFe-Ou5FWea8fvfqkU1-2" target="rlFe-Ou5FWea8fvfqkU1-3" edge="1">
          <mxGeometry width="50" height="50" relative="1" as="geometry">
            <mxPoint x="39.52947568968773" y="114.908203125" as="sourcePoint" />
            <mxPoint x="85.49398230560365" y="68.94492187499998" as="targetPoint" />
            <Array as="points">
              <mxPoint x="87.33256257024027" y="96.522890625" />
            </Array>
          </mxGeometry>
        </mxCell>
        <mxCell id="rlFe-Ou5FWea8fvfqkU1-7" value="" style="endArrow=none;html=1;rounded=0;exitX=1.007;exitY=0.951;exitDx=0;exitDy=0;exitPerimeter=0;entryX=0;entryY=0.5;entryDx=0;entryDy=0;entryPerimeter=0;jumpSize=6;startSize=7;" parent="0ev0CNcDxgLPUTiBVm03-4" edge="1">
          <mxGeometry width="50" height="50" relative="1" as="geometry">
            <mxPoint x="64.35030926228228" y="14.708250000000021" as="sourcePoint" />
            <mxPoint x="87.33256257024027" y="33.09356250000002" as="targetPoint" />
            <Array as="points">
              <mxPoint x="87.33256257024027" y="14.708250000000021" />
            </Array>
          </mxGeometry>
        </mxCell>
        <mxCell id="0ev0CNcDxgLPUTiBVm03-5" value="Conversor do Lado&lt;div style=&quot;font-size: 13px;&quot;&gt;do Rotor&lt;/div&gt;" style="text;html=1;align=center;verticalAlign=middle;resizable=0;points=[];autosize=1;strokeColor=none;fillColor=none;fontSize=13;fontStyle=1" vertex="1" parent="1">
          <mxGeometry x="311.5421664014285" y="225" width="130" height="40" as="geometry" />
        </mxCell>
        <mxCell id="0ev0CNcDxgLPUTiBVm03-38" value="" style="edgeStyle=orthogonalEdgeStyle;rounded=0;orthogonalLoop=1;jettySize=auto;html=1;" edge="1" parent="1" source="0ev0CNcDxgLPUTiBVm03-6" target="0ev0CNcDxgLPUTiBVm03-7">
          <mxGeometry relative="1" as="geometry" />
        </mxCell>
        <mxCell id="0ev0CNcDxgLPUTiBVm03-48" style="edgeStyle=orthogonalEdgeStyle;rounded=0;orthogonalLoop=1;jettySize=auto;html=1;" edge="1" parent="1" source="0ev0CNcDxgLPUTiBVm03-6" target="0ev0CNcDxgLPUTiBVm03-11">
          <mxGeometry relative="1" as="geometry" />
        </mxCell>
        <mxCell id="0ev0CNcDxgLPUTiBVm03-6" value="PLL" style="rounded=1;whiteSpace=wrap;html=1;fontStyle=1;fontSize=19;" vertex="1" parent="1">
          <mxGeometry x="-5" y="124.54" width="70" height="60" as="geometry" />
        </mxCell>
        <mxCell id="0ev0CNcDxgLPUTiBVm03-10" value="" style="group" vertex="1" connectable="0" parent="1">
          <mxGeometry x="10" y="225" width="40" height="55" as="geometry" />
        </mxCell>
        <mxCell id="0ev0CNcDxgLPUTiBVm03-7" value="" style="ellipse;whiteSpace=wrap;html=1;aspect=fixed;direction=south;" vertex="1" parent="0ev0CNcDxgLPUTiBVm03-10">
          <mxGeometry width="40" height="40" as="geometry" />
        </mxCell>
        <mxCell id="0ev0CNcDxgLPUTiBVm03-8" value="" style="endArrow=none;html=1;rounded=0;entryX=0;entryY=0;entryDx=0;entryDy=0;exitX=1;exitY=1;exitDx=0;exitDy=0;" edge="1" parent="0ev0CNcDxgLPUTiBVm03-10" source="0ev0CNcDxgLPUTiBVm03-7" target="0ev0CNcDxgLPUTiBVm03-7">
          <mxGeometry width="50" height="50" relative="1" as="geometry">
            <mxPoint x="-10" y="55.15999999999997" as="sourcePoint" />
            <mxPoint x="40" y="5.159999999999968" as="targetPoint" />
          </mxGeometry>
        </mxCell>
        <mxCell id="0ev0CNcDxgLPUTiBVm03-9" value="" style="endArrow=none;html=1;rounded=0;entryX=0;entryY=1;entryDx=0;entryDy=0;exitX=1;exitY=0;exitDx=0;exitDy=0;" edge="1" parent="0ev0CNcDxgLPUTiBVm03-10" source="0ev0CNcDxgLPUTiBVm03-7" target="0ev0CNcDxgLPUTiBVm03-7">
          <mxGeometry width="50" height="50" relative="1" as="geometry">
            <mxPoint x="16" y="44" as="sourcePoint" />
            <mxPoint x="44" y="16" as="targetPoint" />
          </mxGeometry>
        </mxCell>
        <mxCell id="0ev0CNcDxgLPUTiBVm03-84" style="edgeStyle=orthogonalEdgeStyle;rounded=0;orthogonalLoop=1;jettySize=auto;html=1;" edge="1" parent="1" source="0ev0CNcDxgLPUTiBVm03-11">
          <mxGeometry relative="1" as="geometry">
            <mxPoint x="-35" y="320" as="targetPoint" />
          </mxGeometry>
        </mxCell>
        <mxCell id="0ev0CNcDxgLPUTiBVm03-11" value="&lt;b&gt;&lt;font style=&quot;font-size: 17px;&quot;&gt;ZOH&lt;/font&gt;&lt;/b&gt;" style="rounded=1;whiteSpace=wrap;html=1;" vertex="1" parent="1">
          <mxGeometry x="-60" y="230" width="50" height="30" as="geometry" />
        </mxCell>
        <mxCell id="0ev0CNcDxgLPUTiBVm03-57" style="edgeStyle=orthogonalEdgeStyle;rounded=0;orthogonalLoop=1;jettySize=auto;html=1;entryX=0.669;entryY=-0.008;entryDx=0;entryDy=0;entryPerimeter=0;" edge="1" parent="1" source="0ev0CNcDxgLPUTiBVm03-13" target="0ev0CNcDxgLPUTiBVm03-54">
          <mxGeometry relative="1" as="geometry">
            <mxPoint x="30" y="410" as="targetPoint" />
          </mxGeometry>
        </mxCell>
        <mxCell id="0ev0CNcDxgLPUTiBVm03-13" value="&lt;b&gt;&lt;font style=&quot;font-size: 17px;&quot;&gt;ZOH&lt;/font&gt;&lt;/b&gt;" style="rounded=1;whiteSpace=wrap;html=1;" vertex="1" parent="1">
          <mxGeometry x="5" y="320" width="50" height="30" as="geometry" />
        </mxCell>
        <mxCell id="0ev0CNcDxgLPUTiBVm03-37" style="edgeStyle=orthogonalEdgeStyle;rounded=0;orthogonalLoop=1;jettySize=auto;html=1;entryX=0.5;entryY=0;entryDx=0;entryDy=0;" edge="1" parent="1" source="0ev0CNcDxgLPUTiBVm03-14" target="0ev0CNcDxgLPUTiBVm03-7">
          <mxGeometry relative="1" as="geometry" />
        </mxCell>
        <mxCell id="0ev0CNcDxgLPUTiBVm03-14" value="\(\frac{1}{s}\)" style="rounded=1;whiteSpace=wrap;html=1;fontSize=20;" vertex="1" parent="1">
          <mxGeometry x="84.14999999999999" y="225" width="31.71" height="40" as="geometry" />
        </mxCell>
        <mxCell id="0ev0CNcDxgLPUTiBVm03-61" style="edgeStyle=orthogonalEdgeStyle;rounded=0;orthogonalLoop=1;jettySize=auto;html=1;exitX=0;exitY=0.5;exitDx=0;exitDy=0;entryX=1;entryY=0.5;entryDx=0;entryDy=0;" edge="1" parent="1" source="0ev0CNcDxgLPUTiBVm03-16" target="0ev0CNcDxgLPUTiBVm03-25">
          <mxGeometry relative="1" as="geometry" />
        </mxCell>
        <mxCell id="0ev0CNcDxgLPUTiBVm03-16" value="&lt;b&gt;&lt;font style=&quot;font-size: 17px;&quot;&gt;ZOH&lt;/font&gt;&lt;/b&gt;" style="rounded=1;whiteSpace=wrap;html=1;" vertex="1" parent="1">
          <mxGeometry x="192.43" y="440" width="50" height="30" as="geometry" />
        </mxCell>
        <mxCell id="0ev0CNcDxgLPUTiBVm03-66" style="edgeStyle=orthogonalEdgeStyle;rounded=0;orthogonalLoop=1;jettySize=auto;html=1;exitX=1;exitY=0.5;exitDx=0;exitDy=0;entryX=0;entryY=0.5;entryDx=0;entryDy=0;" edge="1" parent="1" source="0ev0CNcDxgLPUTiBVm03-18" target="0ev0CNcDxgLPUTiBVm03-22">
          <mxGeometry relative="1" as="geometry" />
        </mxCell>
        <mxCell id="0ev0CNcDxgLPUTiBVm03-18" value="&lt;font style=&quot;&quot;&gt;&lt;span style=&quot;font-size: 17px;&quot;&gt;&lt;b&gt;\(\vec{v}_{r,dq} = (R_r + j\sigma L_r \omega_{sl}) \vec{i}_{r,dq} + \sigma L_r \frac{d \vec{i}_{r,dq}}{dt} + j \frac{L_M}{L_s} \omega_{sl} |\vec{\lambda}_s|\)&lt;/b&gt;&lt;/span&gt;&lt;/font&gt;" style="rounded=1;whiteSpace=wrap;html=1;" vertex="1" parent="1">
          <mxGeometry x="30" y="530" width="458.59" height="65" as="geometry" />
        </mxCell>
        <mxCell id="0ev0CNcDxgLPUTiBVm03-29" value="" style="group" vertex="1" connectable="0" parent="1">
          <mxGeometry x="84.14999999999998" y="425" width="80" height="60" as="geometry" />
        </mxCell>
        <mxCell id="0ev0CNcDxgLPUTiBVm03-25" value="" style="rounded=0;whiteSpace=wrap;html=1;" vertex="1" parent="0ev0CNcDxgLPUTiBVm03-29">
          <mxGeometry x="10" width="60" height="60" as="geometry" />
        </mxCell>
        <mxCell id="0ev0CNcDxgLPUTiBVm03-26" value="" style="endArrow=none;html=1;rounded=0;entryX=1;entryY=0;entryDx=0;entryDy=0;exitX=0;exitY=1;exitDx=0;exitDy=0;" edge="1" parent="0ev0CNcDxgLPUTiBVm03-29" source="0ev0CNcDxgLPUTiBVm03-25" target="0ev0CNcDxgLPUTiBVm03-25">
          <mxGeometry width="50" height="50" relative="1" as="geometry">
            <mxPoint x="-90" y="60" as="sourcePoint" />
            <mxPoint x="80" y="-30" as="targetPoint" />
          </mxGeometry>
        </mxCell>
        <mxCell id="0ev0CNcDxgLPUTiBVm03-27" value="\(abc\)" style="text;html=1;align=center;verticalAlign=middle;whiteSpace=wrap;rounded=0;fontSize=15;" vertex="1" parent="0ev0CNcDxgLPUTiBVm03-29">
          <mxGeometry x="20" y="30" width="60" height="30" as="geometry" />
        </mxCell>
        <mxCell id="0ev0CNcDxgLPUTiBVm03-28" value="\(\alpha \beta r\)" style="text;html=1;align=center;verticalAlign=middle;whiteSpace=wrap;rounded=0;fontSize=15;" vertex="1" parent="0ev0CNcDxgLPUTiBVm03-29">
          <mxGeometry width="60" height="30" as="geometry" />
        </mxCell>
        <mxCell id="0ev0CNcDxgLPUTiBVm03-30" value="" style="group" vertex="1" connectable="0" parent="1">
          <mxGeometry x="528.59" y="532.5" width="80" height="60" as="geometry" />
        </mxCell>
        <mxCell id="0ev0CNcDxgLPUTiBVm03-22" value="" style="rounded=0;whiteSpace=wrap;html=1;" vertex="1" parent="0ev0CNcDxgLPUTiBVm03-30">
          <mxGeometry x="10" width="60" height="60" as="geometry" />
        </mxCell>
        <mxCell id="0ev0CNcDxgLPUTiBVm03-21" value="" style="endArrow=none;html=1;rounded=0;entryX=1;entryY=0;entryDx=0;entryDy=0;exitX=0;exitY=1;exitDx=0;exitDy=0;" edge="1" parent="0ev0CNcDxgLPUTiBVm03-30" source="0ev0CNcDxgLPUTiBVm03-22" target="0ev0CNcDxgLPUTiBVm03-22">
          <mxGeometry width="50" height="50" relative="1" as="geometry">
            <mxPoint x="-90" y="60" as="sourcePoint" />
            <mxPoint x="80" y="-30" as="targetPoint" />
          </mxGeometry>
        </mxCell>
        <mxCell id="0ev0CNcDxgLPUTiBVm03-23" value="\(dq\)" style="text;html=1;align=center;verticalAlign=middle;whiteSpace=wrap;rounded=0;fontSize=15;" vertex="1" parent="0ev0CNcDxgLPUTiBVm03-30">
          <mxGeometry width="60" height="30" as="geometry" />
        </mxCell>
        <mxCell id="0ev0CNcDxgLPUTiBVm03-24" value="\(\alpha \beta r\)" style="text;html=1;align=center;verticalAlign=middle;whiteSpace=wrap;rounded=0;fontSize=15;" vertex="1" parent="0ev0CNcDxgLPUTiBVm03-30">
          <mxGeometry x="20" y="30" width="60" height="30" as="geometry" />
        </mxCell>
        <mxCell id="0ev0CNcDxgLPUTiBVm03-31" value="Deadbeat" style="text;html=1;align=center;verticalAlign=middle;whiteSpace=wrap;rounded=0;fontStyle=1;fontSize=15;" vertex="1" parent="1">
          <mxGeometry x="229.3" y="500" width="60" height="30" as="geometry" />
        </mxCell>
        <mxCell id="0ev0CNcDxgLPUTiBVm03-40" style="edgeStyle=orthogonalEdgeStyle;rounded=0;orthogonalLoop=1;jettySize=auto;html=1;exitX=0.5;exitY=0;exitDx=0;exitDy=0;entryX=0.5;entryY=0;entryDx=0;entryDy=0;" edge="1" parent="1" source="0ev0CNcDxgLPUTiBVm03-32" target="0ev0CNcDxgLPUTiBVm03-6">
          <mxGeometry relative="1" as="geometry" />
        </mxCell>
        <mxCell id="0ev0CNcDxgLPUTiBVm03-32" value="" style="ellipse;whiteSpace=wrap;html=1;fillColor=none;dashed=1;dashPattern=12 12;" vertex="1" parent="1">
          <mxGeometry x="340" y="147.58" width="40" height="63.92" as="geometry" />
        </mxCell>
        <mxCell id="0ev0CNcDxgLPUTiBVm03-46" value="\(-\)" style="text;html=1;align=center;verticalAlign=middle;resizable=0;points=[];autosize=1;strokeColor=none;fillColor=none;fontStyle=1;fontSize=14;" vertex="1" parent="1">
          <mxGeometry x="40" y="250" width="50" height="30" as="geometry" />
        </mxCell>
        <mxCell id="0ev0CNcDxgLPUTiBVm03-41" value="\(+\)" style="text;html=1;align=center;verticalAlign=middle;resizable=0;points=[];autosize=1;strokeColor=none;fillColor=none;fontStyle=1;fontSize=14;" vertex="1" parent="1">
          <mxGeometry x="-10" y="195" width="50" height="30" as="geometry" />
        </mxCell>
        <mxCell id="0ev0CNcDxgLPUTiBVm03-47" style="edgeStyle=orthogonalEdgeStyle;rounded=0;orthogonalLoop=1;jettySize=auto;html=1;entryX=0.5;entryY=0;entryDx=0;entryDy=0;" edge="1" parent="1" source="0ev0CNcDxgLPUTiBVm03-7" target="0ev0CNcDxgLPUTiBVm03-13">
          <mxGeometry relative="1" as="geometry" />
        </mxCell>
        <mxCell id="0ev0CNcDxgLPUTiBVm03-50" style="edgeStyle=orthogonalEdgeStyle;rounded=0;orthogonalLoop=1;jettySize=auto;html=1;startArrow=classic;startFill=1;endArrow=none;endFill=0;" edge="1" parent="1" source="0ev0CNcDxgLPUTiBVm03-49">
          <mxGeometry relative="1" as="geometry">
            <mxPoint x="100" y="200" as="targetPoint" />
            <Array as="points">
              <mxPoint x="125" y="200" />
            </Array>
          </mxGeometry>
        </mxCell>
        <mxCell id="0ev0CNcDxgLPUTiBVm03-81" value="" style="edgeStyle=orthogonalEdgeStyle;rounded=0;orthogonalLoop=1;jettySize=auto;html=1;" edge="1" parent="1" source="0ev0CNcDxgLPUTiBVm03-49" target="0ev0CNcDxgLPUTiBVm03-78">
          <mxGeometry relative="1" as="geometry" />
        </mxCell>
        <mxCell id="0ev0CNcDxgLPUTiBVm03-49" value="&lt;b&gt;&lt;font style=&quot;font-size: 17px;&quot;&gt;ZOH&lt;/font&gt;&lt;/b&gt;" style="rounded=1;whiteSpace=wrap;html=1;" vertex="1" parent="1">
          <mxGeometry x="99.15" y="280" width="50" height="30" as="geometry" />
        </mxCell>
        <mxCell id="0ev0CNcDxgLPUTiBVm03-51" value="" style="group" vertex="1" connectable="0" parent="1">
          <mxGeometry x="-10" y="425" width="80" height="60" as="geometry" />
        </mxCell>
        <mxCell id="0ev0CNcDxgLPUTiBVm03-52" value="" style="rounded=0;whiteSpace=wrap;html=1;" vertex="1" parent="0ev0CNcDxgLPUTiBVm03-51">
          <mxGeometry x="10" width="60" height="60" as="geometry" />
        </mxCell>
        <mxCell id="0ev0CNcDxgLPUTiBVm03-53" value="" style="endArrow=none;html=1;rounded=0;entryX=1;entryY=0;entryDx=0;entryDy=0;exitX=0;exitY=1;exitDx=0;exitDy=0;" edge="1" parent="0ev0CNcDxgLPUTiBVm03-51" source="0ev0CNcDxgLPUTiBVm03-52" target="0ev0CNcDxgLPUTiBVm03-52">
          <mxGeometry width="50" height="50" relative="1" as="geometry">
            <mxPoint x="-90" y="60" as="sourcePoint" />
            <mxPoint x="80" y="-30" as="targetPoint" />
          </mxGeometry>
        </mxCell>
        <mxCell id="0ev0CNcDxgLPUTiBVm03-54" value="\(dq\)" style="text;html=1;align=center;verticalAlign=middle;whiteSpace=wrap;rounded=0;fontSize=15;" vertex="1" parent="0ev0CNcDxgLPUTiBVm03-51">
          <mxGeometry width="60" height="30" as="geometry" />
        </mxCell>
        <mxCell id="0ev0CNcDxgLPUTiBVm03-55" value="\(\alpha \beta r\)" style="text;html=1;align=center;verticalAlign=middle;whiteSpace=wrap;rounded=0;fontSize=15;" vertex="1" parent="0ev0CNcDxgLPUTiBVm03-51">
          <mxGeometry x="20" y="30" width="60" height="30" as="geometry" />
        </mxCell>
        <mxCell id="0ev0CNcDxgLPUTiBVm03-59" style="edgeStyle=orthogonalEdgeStyle;rounded=0;orthogonalLoop=1;jettySize=auto;html=1;exitX=0;exitY=0.5;exitDx=0;exitDy=0;entryX=1;entryY=0.5;entryDx=0;entryDy=0;" edge="1" parent="1" source="0ev0CNcDxgLPUTiBVm03-25" target="0ev0CNcDxgLPUTiBVm03-52">
          <mxGeometry relative="1" as="geometry" />
        </mxCell>
        <mxCell id="0ev0CNcDxgLPUTiBVm03-64" style="edgeStyle=orthogonalEdgeStyle;rounded=0;orthogonalLoop=1;jettySize=auto;html=1;exitX=0.5;exitY=1;exitDx=0;exitDy=0;entryX=1;entryY=0.5;entryDx=0;entryDy=0;" edge="1" parent="1" source="0ev0CNcDxgLPUTiBVm03-62" target="0ev0CNcDxgLPUTiBVm03-16">
          <mxGeometry relative="1" as="geometry">
            <mxPoint x="260" y="440" as="targetPoint" />
          </mxGeometry>
        </mxCell>
        <mxCell id="0ev0CNcDxgLPUTiBVm03-62" value="" style="ellipse;whiteSpace=wrap;html=1;fillColor=none;dashed=1;dashPattern=12 12;" vertex="1" parent="1">
          <mxGeometry x="252.11" y="280" width="40" height="63.92" as="geometry" />
        </mxCell>
        <mxCell id="0ev0CNcDxgLPUTiBVm03-70" style="edgeStyle=orthogonalEdgeStyle;rounded=0;orthogonalLoop=1;jettySize=auto;html=1;entryX=0.5;entryY=1;entryDx=0;entryDy=0;" edge="1" parent="1" source="0ev0CNcDxgLPUTiBVm03-67" target="rlFe-Ou5FWea8fvfqkU1-1">
          <mxGeometry relative="1" as="geometry" />
        </mxCell>
        <mxCell id="0ev0CNcDxgLPUTiBVm03-67" value="MinimizaÃ§Ã£o da funÃ§Ã£o de custo" style="rounded=1;whiteSpace=wrap;html=1;fontStyle=1;fontSize=14;" vertex="1" parent="1">
          <mxGeometry x="503.59000000000003" y="420" width="130" height="70" as="geometry" />
        </mxCell>
        <mxCell id="0ev0CNcDxgLPUTiBVm03-69" value="" style="edgeStyle=orthogonalEdgeStyle;rounded=0;orthogonalLoop=1;jettySize=auto;html=1;" edge="1" parent="1" source="0ev0CNcDxgLPUTiBVm03-22" target="0ev0CNcDxgLPUTiBVm03-67">
          <mxGeometry relative="1" as="geometry" />
        </mxCell>
        <mxCell id="0ev0CNcDxgLPUTiBVm03-71" value="\(\theta_s\)" style="text;html=1;align=center;verticalAlign=middle;resizable=0;points=[];autosize=1;strokeColor=none;fillColor=none;" vertex="1" parent="1">
          <mxGeometry x="5" y="186.78" width="80" height="30" as="geometry" />
        </mxCell>
        <mxCell id="0ev0CNcDxgLPUTiBVm03-72" value="\(\theta_r\)" style="text;html=1;align=center;verticalAlign=middle;resizable=0;points=[];autosize=1;strokeColor=none;fillColor=none;" vertex="1" parent="1">
          <mxGeometry x="30" y="220" width="80" height="30" as="geometry" />
        </mxCell>
        <mxCell id="0ev0CNcDxgLPUTiBVm03-73" value="\(\theta_{sl}\)" style="text;html=1;align=center;verticalAlign=middle;resizable=0;points=[];autosize=1;strokeColor=none;fillColor=none;" vertex="1" parent="1">
          <mxGeometry y="270" width="90" height="30" as="geometry" />
        </mxCell>
        <mxCell id="0ev0CNcDxgLPUTiBVm03-74" value="\(\omega_{s}\)" style="text;html=1;align=center;verticalAlign=middle;resizable=0;points=[];autosize=1;strokeColor=none;fillColor=none;" vertex="1" parent="1">
          <mxGeometry x="-100" y="190" width="100" height="30" as="geometry" />
        </mxCell>
        <mxCell id="0ev0CNcDxgLPUTiBVm03-75" value="\(\omega_{r}\)" style="text;html=1;align=center;verticalAlign=middle;resizable=0;points=[];autosize=1;strokeColor=none;fillColor=none;" vertex="1" parent="1">
          <mxGeometry x="40" y="184" width="100" height="30" as="geometry" />
        </mxCell>
        <mxCell id="0ev0CNcDxgLPUTiBVm03-77" value="" style="group" vertex="1" connectable="0" parent="1">
          <mxGeometry x="105" y="340" width="40" height="55" as="geometry" />
        </mxCell>
        <mxCell id="0ev0CNcDxgLPUTiBVm03-90" style="edgeStyle=orthogonalEdgeStyle;rounded=0;orthogonalLoop=1;jettySize=auto;html=1;" edge="1" parent="0ev0CNcDxgLPUTiBVm03-77" source="0ev0CNcDxgLPUTiBVm03-78">
          <mxGeometry relative="1" as="geometry">
            <mxPoint x="20" y="60" as="targetPoint" />
          </mxGeometry>
        </mxCell>
        <mxCell id="0ev0CNcDxgLPUTiBVm03-78" value="" style="ellipse;whiteSpace=wrap;html=1;aspect=fixed;direction=south;" vertex="1" parent="0ev0CNcDxgLPUTiBVm03-77">
          <mxGeometry width="40" height="40" as="geometry" />
        </mxCell>
        <mxCell id="0ev0CNcDxgLPUTiBVm03-79" value="" style="endArrow=none;html=1;rounded=0;entryX=0;entryY=0;entryDx=0;entryDy=0;exitX=1;exitY=1;exitDx=0;exitDy=0;" edge="1" parent="0ev0CNcDxgLPUTiBVm03-77" source="0ev0CNcDxgLPUTiBVm03-78" target="0ev0CNcDxgLPUTiBVm03-78">
          <mxGeometry width="50" height="50" relative="1" as="geometry">
            <mxPoint x="-10" y="55.15999999999997" as="sourcePoint" />
            <mxPoint x="40" y="5.159999999999968" as="targetPoint" />
          </mxGeometry>
        </mxCell>
        <mxCell id="0ev0CNcDxgLPUTiBVm03-80" value="" style="endArrow=none;html=1;rounded=0;entryX=0;entryY=1;entryDx=0;entryDy=0;exitX=1;exitY=0;exitDx=0;exitDy=0;" edge="1" parent="0ev0CNcDxgLPUTiBVm03-77" source="0ev0CNcDxgLPUTiBVm03-78" target="0ev0CNcDxgLPUTiBVm03-78">
          <mxGeometry width="50" height="50" relative="1" as="geometry">
            <mxPoint x="16" y="44" as="sourcePoint" />
            <mxPoint x="44" y="16" as="targetPoint" />
          </mxGeometry>
        </mxCell>
        <mxCell id="0ev0CNcDxgLPUTiBVm03-83" value="\(\omega_{r}(k)\)" style="text;html=1;align=center;verticalAlign=middle;resizable=0;points=[];autosize=1;strokeColor=none;fillColor=none;" vertex="1" parent="1">
          <mxGeometry x="90" y="310" width="110" height="30" as="geometry" />
        </mxCell>
        <mxCell id="0ev0CNcDxgLPUTiBVm03-85" value="\(\omega_{s} (k)\)" style="text;html=1;align=center;verticalAlign=middle;resizable=0;points=[];autosize=1;strokeColor=none;fillColor=none;" vertex="1" parent="1">
          <mxGeometry x="-95" y="319.99999999999994" width="120" height="30" as="geometry" />
        </mxCell>
        <mxCell id="0ev0CNcDxgLPUTiBVm03-89" style="edgeStyle=orthogonalEdgeStyle;rounded=0;orthogonalLoop=1;jettySize=auto;html=1;entryX=0.5;entryY=0;entryDx=0;entryDy=0;" edge="1" parent="1" source="0ev0CNcDxgLPUTiBVm03-87" target="0ev0CNcDxgLPUTiBVm03-78">
          <mxGeometry relative="1" as="geometry" />
        </mxCell>
        <mxCell id="0ev0CNcDxgLPUTiBVm03-87" value="&lt;span style=&quot;text-wrap: nowrap;&quot;&gt;\(\omega_{s}(k)\)&lt;/span&gt;" style="text;html=1;align=center;verticalAlign=middle;whiteSpace=wrap;rounded=0;" vertex="1" parent="1">
          <mxGeometry x="171.07" y="350" width="35.85" height="20" as="geometry" />
        </mxCell>
        <mxCell id="0ev0CNcDxgLPUTiBVm03-91" value="&lt;span style=&quot;text-wrap: nowrap;&quot;&gt;\(\omega_{sl}(k)\)&lt;/span&gt;" style="text;html=1;align=center;verticalAlign=middle;whiteSpace=wrap;rounded=0;" vertex="1" parent="1">
          <mxGeometry x="106.22999999999999" y="400" width="35.85" height="20" as="geometry" />
        </mxCell>
        <mxCell id="0ev0CNcDxgLPUTiBVm03-92" value="\(\theta_{sl}(k)\)" style="text;html=1;align=center;verticalAlign=middle;resizable=0;points=[];autosize=1;strokeColor=none;fillColor=none;" vertex="1" parent="1">
          <mxGeometry x="-3.7699999999999996" y="370" width="110" height="30" as="geometry" />
        </mxCell>
      </root>
    </mxGraphModel>
  </diagram>
</mxfile>
